<mxfile host="Electron" agent="Mozilla/5.0 (X11; Linux x86_64) AppleWebKit/537.36 (KHTML, like Gecko) draw.io/24.7.17 Chrome/128.0.6613.36 Electron/32.0.1 Safari/537.36" version="24.7.17">
  <diagram id="R2lEEEUBdFMjLlhIrx00" name="Page-1">
    <mxGraphModel dx="2216" dy="843" grid="1" gridSize="10" guides="1" tooltips="1" connect="1" arrows="1" fold="1" page="1" pageScale="1" pageWidth="850" pageHeight="1100" math="0" shadow="0" extFonts="Permanent Marker^https://fonts.googleapis.com/css?family=Permanent+Marker">
      <root>
        <mxCell id="0" />
        <mxCell id="1" parent="0" />
        <mxCell id="6hhmFjWz-99Jrrq4Zya4-2" value="" style="rounded=1;whiteSpace=wrap;html=1;" vertex="1" parent="1">
          <mxGeometry x="30" y="760" width="120" height="60" as="geometry" />
        </mxCell>
        <mxCell id="2BBWS6zxAbQjIf1ggg0--36" value="" style="rounded=1;whiteSpace=wrap;html=1;rotation=90;" parent="1" vertex="1">
          <mxGeometry x="375" y="1580" width="470" height="150" as="geometry" />
        </mxCell>
        <mxCell id="GkTLFh9MGfN7TxAeOnmk-27" style="edgeStyle=orthogonalEdgeStyle;rounded=0;orthogonalLoop=1;jettySize=auto;html=1;entryX=1;entryY=0.5;entryDx=0;entryDy=0;endArrow=none;endFill=0;" parent="1" source="GkTLFh9MGfN7TxAeOnmk-2" target="GkTLFh9MGfN7TxAeOnmk-26" edge="1">
          <mxGeometry relative="1" as="geometry" />
        </mxCell>
        <mxCell id="2BBWS6zxAbQjIf1ggg0--40" value="" style="edgeStyle=orthogonalEdgeStyle;rounded=0;orthogonalLoop=1;jettySize=auto;html=1;entryX=1;entryY=0.5;entryDx=0;entryDy=0;endArrow=none;endFill=0;" parent="1" source="GkTLFh9MGfN7TxAeOnmk-2" target="GkTLFh9MGfN7TxAeOnmk-7" edge="1">
          <mxGeometry relative="1" as="geometry">
            <mxPoint x="480" y="1480" as="targetPoint" />
          </mxGeometry>
        </mxCell>
        <mxCell id="GkTLFh9MGfN7TxAeOnmk-2" value="Materias primas" style="rounded=1;arcSize=10;whiteSpace=wrap;html=1;align=center;" parent="1" vertex="1">
          <mxGeometry x="560" y="1460" width="100" height="40" as="geometry" />
        </mxCell>
        <mxCell id="GkTLFh9MGfN7TxAeOnmk-17" style="edgeStyle=orthogonalEdgeStyle;rounded=0;orthogonalLoop=1;jettySize=auto;html=1;endArrow=none;endFill=0;" parent="1" source="GkTLFh9MGfN7TxAeOnmk-3" edge="1">
          <mxGeometry relative="1" as="geometry">
            <mxPoint x="290" y="1480" as="targetPoint" />
          </mxGeometry>
        </mxCell>
        <mxCell id="GkTLFh9MGfN7TxAeOnmk-49" value="" style="edgeStyle=orthogonalEdgeStyle;rounded=0;orthogonalLoop=1;jettySize=auto;html=1;endArrow=none;endFill=0;" parent="1" source="GkTLFh9MGfN7TxAeOnmk-3" target="GkTLFh9MGfN7TxAeOnmk-45" edge="1">
          <mxGeometry relative="1" as="geometry" />
        </mxCell>
        <mxCell id="GkTLFh9MGfN7TxAeOnmk-3" value="Cosmeticos" style="rounded=1;arcSize=10;whiteSpace=wrap;html=1;align=center;" parent="1" vertex="1">
          <mxGeometry x="40" y="1460" width="100" height="40" as="geometry" />
        </mxCell>
        <mxCell id="GkTLFh9MGfN7TxAeOnmk-6" value="Tipos" style="rounded=1;arcSize=10;whiteSpace=wrap;html=1;align=center;" parent="1" vertex="1">
          <mxGeometry x="40" y="1850" width="100" height="40" as="geometry" />
        </mxCell>
        <mxCell id="GkTLFh9MGfN7TxAeOnmk-9" value="" style="group" parent="1" vertex="1" connectable="0">
          <mxGeometry x="290" y="1440" width="120" height="80" as="geometry" />
        </mxCell>
        <mxCell id="GkTLFh9MGfN7TxAeOnmk-7" value="" style="triangle;whiteSpace=wrap;html=1;fillColor=#647687;strokeColor=#314354;fontColor=#ffffff;" parent="GkTLFh9MGfN7TxAeOnmk-9" vertex="1">
          <mxGeometry x="60" width="60" height="80" as="geometry" />
        </mxCell>
        <mxCell id="GkTLFh9MGfN7TxAeOnmk-8" value="" style="triangle;whiteSpace=wrap;html=1;rotation=-180;fillColor=#647687;strokeColor=#314354;fontColor=#ffffff;" parent="GkTLFh9MGfN7TxAeOnmk-9" vertex="1">
          <mxGeometry width="60" height="80" as="geometry" />
        </mxCell>
        <mxCell id="GkTLFh9MGfN7TxAeOnmk-11" value="" style="group;rotation=90;" parent="1" vertex="1" connectable="0">
          <mxGeometry x="30" y="1630" width="120" height="80" as="geometry" />
        </mxCell>
        <mxCell id="GkTLFh9MGfN7TxAeOnmk-12" value="" style="triangle;whiteSpace=wrap;html=1;rotation=90;" parent="GkTLFh9MGfN7TxAeOnmk-11" vertex="1">
          <mxGeometry x="30" y="30" width="60" height="80" as="geometry" />
        </mxCell>
        <mxCell id="GkTLFh9MGfN7TxAeOnmk-13" value="" style="triangle;whiteSpace=wrap;html=1;rotation=-90;fillColor=#647687;fontColor=#ffffff;strokeColor=#314354;" parent="GkTLFh9MGfN7TxAeOnmk-11" vertex="1">
          <mxGeometry x="30" y="-30" width="60" height="80" as="geometry" />
        </mxCell>
        <mxCell id="GkTLFh9MGfN7TxAeOnmk-15" style="edgeStyle=orthogonalEdgeStyle;rounded=0;orthogonalLoop=1;jettySize=auto;html=1;entryX=0.5;entryY=0;entryDx=0;entryDy=0;endArrow=none;endFill=0;" parent="1" source="GkTLFh9MGfN7TxAeOnmk-12" target="GkTLFh9MGfN7TxAeOnmk-6" edge="1">
          <mxGeometry relative="1" as="geometry" />
        </mxCell>
        <mxCell id="GkTLFh9MGfN7TxAeOnmk-16" style="edgeStyle=orthogonalEdgeStyle;rounded=0;orthogonalLoop=1;jettySize=auto;html=1;entryX=0.5;entryY=1;entryDx=0;entryDy=0;endArrow=none;endFill=0;" parent="1" source="GkTLFh9MGfN7TxAeOnmk-13" target="GkTLFh9MGfN7TxAeOnmk-3" edge="1">
          <mxGeometry relative="1" as="geometry" />
        </mxCell>
        <mxCell id="6hhmFjWz-99Jrrq4Zya4-8" style="edgeStyle=orthogonalEdgeStyle;rounded=0;orthogonalLoop=1;jettySize=auto;html=1;entryX=0.5;entryY=1;entryDx=0;entryDy=0;endArrow=none;endFill=0;" edge="1" parent="1" source="GkTLFh9MGfN7TxAeOnmk-19" target="GkTLFh9MGfN7TxAeOnmk-7">
          <mxGeometry relative="1" as="geometry" />
        </mxCell>
        <mxCell id="GkTLFh9MGfN7TxAeOnmk-19" value="porcentaje" style="ellipse;whiteSpace=wrap;html=1;align=center;fontStyle=0;" parent="1" vertex="1">
          <mxGeometry x="380" y="1520" width="100" height="40" as="geometry" />
        </mxCell>
        <mxCell id="GkTLFh9MGfN7TxAeOnmk-28" style="edgeStyle=orthogonalEdgeStyle;rounded=0;orthogonalLoop=1;jettySize=auto;html=1;endArrow=none;endFill=0;" parent="1" source="GkTLFh9MGfN7TxAeOnmk-23" edge="1">
          <mxGeometry relative="1" as="geometry">
            <mxPoint x="610" y="1720" as="targetPoint" />
          </mxGeometry>
        </mxCell>
        <mxCell id="GkTLFh9MGfN7TxAeOnmk-23" value="Proveedores" style="rounded=1;arcSize=10;whiteSpace=wrap;html=1;align=center;" parent="1" vertex="1">
          <mxGeometry x="560" y="1840" width="100" height="40" as="geometry" />
        </mxCell>
        <mxCell id="GkTLFh9MGfN7TxAeOnmk-24" value="" style="group;rotation=90;" parent="1" vertex="1" connectable="0">
          <mxGeometry x="550" y="1620" width="140" height="80" as="geometry" />
        </mxCell>
        <mxCell id="GkTLFh9MGfN7TxAeOnmk-25" value="" style="triangle;whiteSpace=wrap;html=1;rotation=90;fillColor=#647687;fontColor=#ffffff;strokeColor=#314354;" parent="GkTLFh9MGfN7TxAeOnmk-24" vertex="1">
          <mxGeometry x="30" y="30" width="60" height="80" as="geometry" />
        </mxCell>
        <mxCell id="GkTLFh9MGfN7TxAeOnmk-26" value="" style="triangle;whiteSpace=wrap;html=1;rotation=-90;fillColor=#647687;fontColor=#ffffff;strokeColor=#314354;" parent="GkTLFh9MGfN7TxAeOnmk-24" vertex="1">
          <mxGeometry x="30" y="-30" width="60" height="80" as="geometry" />
        </mxCell>
        <mxCell id="GkTLFh9MGfN7TxAeOnmk-44" value="" style="group;rotation=90;" parent="1" vertex="1" connectable="0">
          <mxGeometry x="30" y="1250" width="120" height="80" as="geometry" />
        </mxCell>
        <mxCell id="GkTLFh9MGfN7TxAeOnmk-45" value="" style="triangle;whiteSpace=wrap;html=1;rotation=90;" parent="GkTLFh9MGfN7TxAeOnmk-44" vertex="1">
          <mxGeometry x="30" y="30" width="60" height="80" as="geometry" />
        </mxCell>
        <mxCell id="GkTLFh9MGfN7TxAeOnmk-46" value="" style="triangle;whiteSpace=wrap;html=1;rotation=-90;fillColor=#647687;strokeColor=#314354;fontColor=#ffffff;" parent="GkTLFh9MGfN7TxAeOnmk-44" vertex="1">
          <mxGeometry x="30" y="-30" width="60" height="80" as="geometry" />
        </mxCell>
        <mxCell id="GkTLFh9MGfN7TxAeOnmk-47" value="" style="edgeStyle=orthogonalEdgeStyle;rounded=0;orthogonalLoop=1;jettySize=auto;html=1;endArrow=none;endFill=0;" parent="1" source="GkTLFh9MGfN7TxAeOnmk-48" target="GkTLFh9MGfN7TxAeOnmk-46" edge="1">
          <mxGeometry relative="1" as="geometry" />
        </mxCell>
        <mxCell id="GkTLFh9MGfN7TxAeOnmk-60" value="" style="edgeStyle=orthogonalEdgeStyle;rounded=0;orthogonalLoop=1;jettySize=auto;html=1;endArrow=none;endFill=0;" parent="1" source="GkTLFh9MGfN7TxAeOnmk-48" target="GkTLFh9MGfN7TxAeOnmk-56" edge="1">
          <mxGeometry relative="1" as="geometry" />
        </mxCell>
        <mxCell id="GkTLFh9MGfN7TxAeOnmk-48" value="Ordenes" style="rounded=1;arcSize=10;whiteSpace=wrap;html=1;align=center;" parent="1" vertex="1">
          <mxGeometry x="40" y="1110" width="100" height="40" as="geometry" />
        </mxCell>
        <mxCell id="GkTLFh9MGfN7TxAeOnmk-55" value="" style="group;rotation=90;" parent="1" vertex="1" connectable="0">
          <mxGeometry x="30" y="910" width="120" height="80" as="geometry" />
        </mxCell>
        <mxCell id="GkTLFh9MGfN7TxAeOnmk-56" value="" style="triangle;whiteSpace=wrap;html=1;rotation=90;" parent="GkTLFh9MGfN7TxAeOnmk-55" vertex="1">
          <mxGeometry x="30" y="30" width="60" height="80" as="geometry" />
        </mxCell>
        <mxCell id="GkTLFh9MGfN7TxAeOnmk-57" value="" style="triangle;whiteSpace=wrap;html=1;rotation=-90;" parent="GkTLFh9MGfN7TxAeOnmk-55" vertex="1">
          <mxGeometry x="30" y="-30" width="60" height="80" as="geometry" />
        </mxCell>
        <mxCell id="GkTLFh9MGfN7TxAeOnmk-58" value="" style="edgeStyle=orthogonalEdgeStyle;rounded=0;orthogonalLoop=1;jettySize=auto;html=1;endArrow=none;endFill=0;" parent="1" target="GkTLFh9MGfN7TxAeOnmk-57" edge="1">
          <mxGeometry relative="1" as="geometry">
            <mxPoint x="90" y="820" as="sourcePoint" />
          </mxGeometry>
        </mxCell>
        <mxCell id="GkTLFh9MGfN7TxAeOnmk-59" value="Equipos" style="rounded=1;arcSize=10;whiteSpace=wrap;html=1;align=center;" parent="1" vertex="1">
          <mxGeometry x="40" y="770" width="100" height="40" as="geometry" />
        </mxCell>
        <mxCell id="GkTLFh9MGfN7TxAeOnmk-63" style="edgeStyle=orthogonalEdgeStyle;rounded=0;orthogonalLoop=1;jettySize=auto;html=1;endArrow=none;endFill=0;" parent="1" edge="1">
          <mxGeometry relative="1" as="geometry">
            <mxPoint x="290" y="790" as="targetPoint" />
            <mxPoint x="140" y="790" as="sourcePoint" />
          </mxGeometry>
        </mxCell>
        <mxCell id="GkTLFh9MGfN7TxAeOnmk-64" value="" style="group;" parent="1" vertex="1" connectable="0">
          <mxGeometry x="290" y="750" width="120" height="80" as="geometry" />
        </mxCell>
        <mxCell id="GkTLFh9MGfN7TxAeOnmk-65" value="" style="triangle;whiteSpace=wrap;html=1;" parent="GkTLFh9MGfN7TxAeOnmk-64" vertex="1">
          <mxGeometry x="60" width="60" height="80" as="geometry" />
        </mxCell>
        <mxCell id="GkTLFh9MGfN7TxAeOnmk-66" value="" style="triangle;whiteSpace=wrap;html=1;rotation=-180;fillColor=#647687;strokeColor=#314354;fontColor=#ffffff;" parent="GkTLFh9MGfN7TxAeOnmk-64" vertex="1">
          <mxGeometry width="60" height="80" as="geometry" />
        </mxCell>
        <mxCell id="GkTLFh9MGfN7TxAeOnmk-67" style="edgeStyle=orthogonalEdgeStyle;rounded=0;orthogonalLoop=1;jettySize=auto;html=1;entryX=0;entryY=0.5;entryDx=0;entryDy=0;endArrow=none;endFill=0;" parent="1" source="GkTLFh9MGfN7TxAeOnmk-65" edge="1">
          <mxGeometry relative="1" as="geometry">
            <mxPoint x="560" y="790" as="targetPoint" />
          </mxGeometry>
        </mxCell>
        <mxCell id="GkTLFh9MGfN7TxAeOnmk-68" value="Salas" style="rounded=1;arcSize=10;whiteSpace=wrap;html=1;align=center;" parent="1" vertex="1">
          <mxGeometry x="550" y="770" width="100" height="40" as="geometry" />
        </mxCell>
        <mxCell id="fiOfgjRnVxK1CXLO4UrZ-97" style="edgeStyle=orthogonalEdgeStyle;rounded=0;orthogonalLoop=1;jettySize=auto;html=1;entryX=1;entryY=0;entryDx=0;entryDy=0;endArrow=none;endFill=0;" parent="1" source="fiOfgjRnVxK1CXLO4UrZ-2" target="GkTLFh9MGfN7TxAeOnmk-68" edge="1">
          <mxGeometry relative="1" as="geometry" />
        </mxCell>
        <mxCell id="fiOfgjRnVxK1CXLO4UrZ-2" value="id_salas" style="ellipse;whiteSpace=wrap;html=1;align=center;fontStyle=4;" parent="1" vertex="1">
          <mxGeometry x="710" y="730" width="100" height="40" as="geometry" />
        </mxCell>
        <mxCell id="6hhmFjWz-99Jrrq4Zya4-1" style="edgeStyle=orthogonalEdgeStyle;rounded=0;orthogonalLoop=1;jettySize=auto;html=1;entryX=1;entryY=0.75;entryDx=0;entryDy=0;endArrow=none;endFill=0;" edge="1" parent="1" source="fiOfgjRnVxK1CXLO4UrZ-3" target="GkTLFh9MGfN7TxAeOnmk-68">
          <mxGeometry relative="1" as="geometry" />
        </mxCell>
        <mxCell id="fiOfgjRnVxK1CXLO4UrZ-3" value="nombre_salas" style="ellipse;whiteSpace=wrap;html=1;align=center;" parent="1" vertex="1">
          <mxGeometry x="710" y="790" width="100" height="40" as="geometry" />
        </mxCell>
        <mxCell id="fiOfgjRnVxK1CXLO4UrZ-96" style="edgeStyle=orthogonalEdgeStyle;rounded=0;orthogonalLoop=1;jettySize=auto;html=1;entryX=0.25;entryY=0;entryDx=0;entryDy=0;endArrow=none;endFill=0;" parent="1" source="fiOfgjRnVxK1CXLO4UrZ-4" target="6hhmFjWz-99Jrrq4Zya4-2" edge="1">
          <mxGeometry relative="1" as="geometry" />
        </mxCell>
        <mxCell id="fiOfgjRnVxK1CXLO4UrZ-4" value="id_equipos" style="ellipse;whiteSpace=wrap;html=1;align=center;fontStyle=4;" parent="1" vertex="1">
          <mxGeometry x="-110" y="710" width="100" height="40" as="geometry" />
        </mxCell>
        <mxCell id="fiOfgjRnVxK1CXLO4UrZ-95" style="edgeStyle=orthogonalEdgeStyle;rounded=0;orthogonalLoop=1;jettySize=auto;html=1;endArrow=none;endFill=0;" parent="1" source="fiOfgjRnVxK1CXLO4UrZ-5" edge="1">
          <mxGeometry relative="1" as="geometry">
            <mxPoint x="30" y="790" as="targetPoint" />
          </mxGeometry>
        </mxCell>
        <mxCell id="fiOfgjRnVxK1CXLO4UrZ-5" value="nombre" style="ellipse;whiteSpace=wrap;html=1;align=center;" parent="1" vertex="1">
          <mxGeometry x="-90" y="770" width="100" height="40" as="geometry" />
        </mxCell>
        <mxCell id="fiOfgjRnVxK1CXLO4UrZ-6" value="capacidad" style="ellipse;whiteSpace=wrap;html=1;align=center;" parent="1" vertex="1">
          <mxGeometry x="-110" y="840" width="100" height="40" as="geometry" />
        </mxCell>
        <mxCell id="fiOfgjRnVxK1CXLO4UrZ-93" style="edgeStyle=orthogonalEdgeStyle;rounded=0;orthogonalLoop=1;jettySize=auto;html=1;entryX=0.25;entryY=0;entryDx=0;entryDy=0;endArrow=none;endFill=0;" parent="1" source="fiOfgjRnVxK1CXLO4UrZ-9" target="GkTLFh9MGfN7TxAeOnmk-48" edge="1">
          <mxGeometry relative="1" as="geometry" />
        </mxCell>
        <mxCell id="fiOfgjRnVxK1CXLO4UrZ-9" value="id_ordenes" style="ellipse;whiteSpace=wrap;html=1;align=center;fontStyle=4;" parent="1" vertex="1">
          <mxGeometry x="-100" y="1030" width="100" height="40" as="geometry" />
        </mxCell>
        <mxCell id="fiOfgjRnVxK1CXLO4UrZ-92" style="edgeStyle=orthogonalEdgeStyle;rounded=0;orthogonalLoop=1;jettySize=auto;html=1;entryX=0;entryY=0.75;entryDx=0;entryDy=0;endArrow=none;endFill=0;" parent="1" source="fiOfgjRnVxK1CXLO4UrZ-10" target="GkTLFh9MGfN7TxAeOnmk-48" edge="1">
          <mxGeometry relative="1" as="geometry" />
        </mxCell>
        <mxCell id="fiOfgjRnVxK1CXLO4UrZ-10" value="lote_ordenes" style="ellipse;whiteSpace=wrap;html=1;align=center;" parent="1" vertex="1">
          <mxGeometry x="-140" y="1080" width="100" height="40" as="geometry" />
        </mxCell>
        <mxCell id="fiOfgjRnVxK1CXLO4UrZ-11" value="cantidad" style="ellipse;whiteSpace=wrap;html=1;align=center;" parent="1" vertex="1">
          <mxGeometry x="-130" y="1140" width="100" height="40" as="geometry" />
        </mxCell>
        <mxCell id="fiOfgjRnVxK1CXLO4UrZ-90" style="edgeStyle=orthogonalEdgeStyle;rounded=0;orthogonalLoop=1;jettySize=auto;html=1;entryX=0.25;entryY=1;entryDx=0;entryDy=0;endArrow=none;endFill=0;" parent="1" source="fiOfgjRnVxK1CXLO4UrZ-12" target="GkTLFh9MGfN7TxAeOnmk-48" edge="1">
          <mxGeometry relative="1" as="geometry" />
        </mxCell>
        <mxCell id="fiOfgjRnVxK1CXLO4UrZ-12" value="fecha_cadudcidad_ordenes" style="ellipse;whiteSpace=wrap;html=1;align=center;" parent="1" vertex="1">
          <mxGeometry x="-180" y="1220" width="190" height="40" as="geometry" />
        </mxCell>
        <mxCell id="fiOfgjRnVxK1CXLO4UrZ-38" style="edgeStyle=orthogonalEdgeStyle;rounded=0;orthogonalLoop=1;jettySize=auto;html=1;entryX=0;entryY=0;entryDx=0;entryDy=0;endArrow=none;endFill=0;" parent="1" source="fiOfgjRnVxK1CXLO4UrZ-13" target="GkTLFh9MGfN7TxAeOnmk-3" edge="1">
          <mxGeometry relative="1" as="geometry" />
        </mxCell>
        <mxCell id="fiOfgjRnVxK1CXLO4UrZ-13" value="id_cosmeticos" style="ellipse;whiteSpace=wrap;html=1;align=center;fontStyle=4;" parent="1" vertex="1">
          <mxGeometry x="-140" y="1370" width="100" height="40" as="geometry" />
        </mxCell>
        <mxCell id="fiOfgjRnVxK1CXLO4UrZ-37" style="edgeStyle=orthogonalEdgeStyle;rounded=0;orthogonalLoop=1;jettySize=auto;html=1;entryX=0;entryY=0.75;entryDx=0;entryDy=0;endArrow=none;endFill=0;" parent="1" source="fiOfgjRnVxK1CXLO4UrZ-14" target="GkTLFh9MGfN7TxAeOnmk-3" edge="1">
          <mxGeometry relative="1" as="geometry" />
        </mxCell>
        <mxCell id="fiOfgjRnVxK1CXLO4UrZ-14" value="nombre_cosmeticos" style="ellipse;whiteSpace=wrap;html=1;align=center;" parent="1" vertex="1">
          <mxGeometry x="-150" y="1430" width="120" height="40" as="geometry" />
        </mxCell>
        <mxCell id="fiOfgjRnVxK1CXLO4UrZ-15" value="fecha_caduciddad_cosmeticos" style="ellipse;whiteSpace=wrap;html=1;align=center;" parent="1" vertex="1">
          <mxGeometry x="-190" y="1490" width="190" height="40" as="geometry" />
        </mxCell>
        <mxCell id="fiOfgjRnVxK1CXLO4UrZ-44" style="edgeStyle=orthogonalEdgeStyle;rounded=0;orthogonalLoop=1;jettySize=auto;html=1;entryX=0.25;entryY=0;entryDx=0;entryDy=0;endArrow=none;endFill=0;" parent="1" source="fiOfgjRnVxK1CXLO4UrZ-17" target="GkTLFh9MGfN7TxAeOnmk-6" edge="1">
          <mxGeometry relative="1" as="geometry" />
        </mxCell>
        <mxCell id="fiOfgjRnVxK1CXLO4UrZ-17" value="id_tipos" style="ellipse;whiteSpace=wrap;html=1;align=center;fontStyle=4;" parent="1" vertex="1">
          <mxGeometry x="-100" y="1810" width="100" height="40" as="geometry" />
        </mxCell>
        <mxCell id="fiOfgjRnVxK1CXLO4UrZ-43" style="edgeStyle=orthogonalEdgeStyle;rounded=0;orthogonalLoop=1;jettySize=auto;html=1;entryX=0.5;entryY=1;entryDx=0;entryDy=0;endArrow=none;endFill=0;" parent="1" source="fiOfgjRnVxK1CXLO4UrZ-18" target="GkTLFh9MGfN7TxAeOnmk-6" edge="1">
          <mxGeometry relative="1" as="geometry" />
        </mxCell>
        <mxCell id="fiOfgjRnVxK1CXLO4UrZ-18" value="nombre_tipos" style="ellipse;whiteSpace=wrap;html=1;align=center;" parent="1" vertex="1">
          <mxGeometry x="-100" y="1900" width="100" height="40" as="geometry" />
        </mxCell>
        <mxCell id="fiOfgjRnVxK1CXLO4UrZ-19" value="Clientes" style="rounded=1;arcSize=10;whiteSpace=wrap;html=1;align=center;" parent="1" vertex="1">
          <mxGeometry x="390" y="1190" width="100" height="40" as="geometry" />
        </mxCell>
        <mxCell id="fiOfgjRnVxK1CXLO4UrZ-20" value="" style="group;rotation=-45;" parent="1" vertex="1" connectable="0">
          <mxGeometry x="210" y="1300" width="120" height="80" as="geometry" />
        </mxCell>
        <mxCell id="fiOfgjRnVxK1CXLO4UrZ-21" value="" style="triangle;whiteSpace=wrap;html=1;rotation=-45;" parent="fiOfgjRnVxK1CXLO4UrZ-20" vertex="1">
          <mxGeometry x="51" y="-21" width="60" height="80" as="geometry" />
        </mxCell>
        <mxCell id="fiOfgjRnVxK1CXLO4UrZ-22" value="" style="triangle;whiteSpace=wrap;html=1;rotation=-225;fillColor=#647687;fontColor=#ffffff;strokeColor=#314354;" parent="fiOfgjRnVxK1CXLO4UrZ-20" vertex="1">
          <mxGeometry x="9" y="21" width="60" height="80" as="geometry" />
        </mxCell>
        <mxCell id="fiOfgjRnVxK1CXLO4UrZ-24" value="" style="endArrow=none;html=1;rounded=0;entryX=1;entryY=0.5;entryDx=0;entryDy=0;" parent="1" target="fiOfgjRnVxK1CXLO4UrZ-22" edge="1">
          <mxGeometry width="50" height="50" relative="1" as="geometry">
            <mxPoint x="140" y="1460" as="sourcePoint" />
            <mxPoint x="190" y="1410" as="targetPoint" />
          </mxGeometry>
        </mxCell>
        <mxCell id="fiOfgjRnVxK1CXLO4UrZ-25" value="" style="endArrow=none;html=1;rounded=0;endSize=7;startSize=7;entryX=0;entryY=1;entryDx=0;entryDy=0;exitX=1;exitY=0.5;exitDx=0;exitDy=0;" parent="1" source="fiOfgjRnVxK1CXLO4UrZ-21" target="fiOfgjRnVxK1CXLO4UrZ-19" edge="1">
          <mxGeometry width="50" height="50" relative="1" as="geometry">
            <mxPoint x="290" y="1320" as="sourcePoint" />
            <mxPoint x="350" y="1260" as="targetPoint" />
          </mxGeometry>
        </mxCell>
        <mxCell id="fiOfgjRnVxK1CXLO4UrZ-26" value="id_clientes" style="ellipse;whiteSpace=wrap;html=1;align=center;fontStyle=4;" parent="1" vertex="1">
          <mxGeometry x="310" y="1110" width="100" height="40" as="geometry" />
        </mxCell>
        <mxCell id="fiOfgjRnVxK1CXLO4UrZ-88" style="edgeStyle=orthogonalEdgeStyle;rounded=0;orthogonalLoop=1;jettySize=auto;html=1;entryX=0.5;entryY=0;entryDx=0;entryDy=0;endArrow=none;endFill=0;" parent="1" source="fiOfgjRnVxK1CXLO4UrZ-27" target="fiOfgjRnVxK1CXLO4UrZ-19" edge="1">
          <mxGeometry relative="1" as="geometry" />
        </mxCell>
        <mxCell id="fiOfgjRnVxK1CXLO4UrZ-27" value="nombre_clientes" style="ellipse;whiteSpace=wrap;html=1;align=center;" parent="1" vertex="1">
          <mxGeometry x="425" y="1070" width="100" height="40" as="geometry" />
        </mxCell>
        <mxCell id="fiOfgjRnVxK1CXLO4UrZ-87" style="edgeStyle=orthogonalEdgeStyle;rounded=0;orthogonalLoop=1;jettySize=auto;html=1;entryX=0.75;entryY=0;entryDx=0;entryDy=0;endArrow=none;endFill=0;" parent="1" source="fiOfgjRnVxK1CXLO4UrZ-28" target="fiOfgjRnVxK1CXLO4UrZ-19" edge="1">
          <mxGeometry relative="1" as="geometry" />
        </mxCell>
        <mxCell id="fiOfgjRnVxK1CXLO4UrZ-28" value="direccion_clientes" style="ellipse;whiteSpace=wrap;html=1;align=center;" parent="1" vertex="1">
          <mxGeometry x="525" y="1100" width="100" height="40" as="geometry" />
        </mxCell>
        <mxCell id="fiOfgjRnVxK1CXLO4UrZ-86" style="edgeStyle=orthogonalEdgeStyle;rounded=0;orthogonalLoop=1;jettySize=auto;html=1;entryX=1;entryY=0;entryDx=0;entryDy=0;endArrow=none;endFill=0;" parent="1" source="fiOfgjRnVxK1CXLO4UrZ-29" target="fiOfgjRnVxK1CXLO4UrZ-19" edge="1">
          <mxGeometry relative="1" as="geometry" />
        </mxCell>
        <mxCell id="fiOfgjRnVxK1CXLO4UrZ-29" value="codigo_postal_clientes" style="ellipse;whiteSpace=wrap;html=1;align=center;" parent="1" vertex="1">
          <mxGeometry x="540" y="1150" width="130" height="40" as="geometry" />
        </mxCell>
        <mxCell id="fiOfgjRnVxK1CXLO4UrZ-85" style="edgeStyle=orthogonalEdgeStyle;rounded=0;orthogonalLoop=1;jettySize=auto;html=1;endArrow=none;endFill=0;" parent="1" source="fiOfgjRnVxK1CXLO4UrZ-30" target="fiOfgjRnVxK1CXLO4UrZ-19" edge="1">
          <mxGeometry relative="1" as="geometry" />
        </mxCell>
        <mxCell id="fiOfgjRnVxK1CXLO4UrZ-30" value="poblacion_clientes" style="ellipse;whiteSpace=wrap;html=1;align=center;" parent="1" vertex="1">
          <mxGeometry x="540" y="1210" width="110" height="40" as="geometry" />
        </mxCell>
        <mxCell id="fiOfgjRnVxK1CXLO4UrZ-84" style="edgeStyle=orthogonalEdgeStyle;rounded=0;orthogonalLoop=1;jettySize=auto;html=1;entryX=1;entryY=0.75;entryDx=0;entryDy=0;endArrow=none;endFill=0;" parent="1" source="fiOfgjRnVxK1CXLO4UrZ-31" target="fiOfgjRnVxK1CXLO4UrZ-19" edge="1">
          <mxGeometry relative="1" as="geometry" />
        </mxCell>
        <mxCell id="fiOfgjRnVxK1CXLO4UrZ-31" value="provincia_clientes" style="ellipse;whiteSpace=wrap;html=1;align=center;" parent="1" vertex="1">
          <mxGeometry x="540" y="1270" width="110" height="40" as="geometry" />
        </mxCell>
        <mxCell id="fiOfgjRnVxK1CXLO4UrZ-83" style="edgeStyle=orthogonalEdgeStyle;rounded=0;orthogonalLoop=1;jettySize=auto;html=1;entryX=0.75;entryY=1;entryDx=0;entryDy=0;endArrow=none;endFill=0;" parent="1" source="fiOfgjRnVxK1CXLO4UrZ-32" target="fiOfgjRnVxK1CXLO4UrZ-19" edge="1">
          <mxGeometry relative="1" as="geometry" />
        </mxCell>
        <mxCell id="fiOfgjRnVxK1CXLO4UrZ-32" value="email_clientes" style="ellipse;whiteSpace=wrap;html=1;align=center;" parent="1" vertex="1">
          <mxGeometry x="460" y="1320" width="100" height="40" as="geometry" />
        </mxCell>
        <mxCell id="fiOfgjRnVxK1CXLO4UrZ-82" style="edgeStyle=orthogonalEdgeStyle;rounded=0;orthogonalLoop=1;jettySize=auto;html=1;entryX=0.25;entryY=1;entryDx=0;entryDy=0;endArrow=none;endFill=0;" parent="1" source="fiOfgjRnVxK1CXLO4UrZ-33" target="fiOfgjRnVxK1CXLO4UrZ-19" edge="1">
          <mxGeometry relative="1" as="geometry" />
        </mxCell>
        <mxCell id="fiOfgjRnVxK1CXLO4UrZ-33" value="telefono_clientes" style="ellipse;whiteSpace=wrap;html=1;align=center;" parent="1" vertex="1">
          <mxGeometry x="360" y="1280" width="100" height="40" as="geometry" />
        </mxCell>
        <mxCell id="fiOfgjRnVxK1CXLO4UrZ-36" style="edgeStyle=orthogonalEdgeStyle;rounded=0;orthogonalLoop=1;jettySize=auto;html=1;entryX=0.09;entryY=0.975;entryDx=0;entryDy=0;entryPerimeter=0;endArrow=none;endFill=0;" parent="1" source="fiOfgjRnVxK1CXLO4UrZ-15" target="GkTLFh9MGfN7TxAeOnmk-3" edge="1">
          <mxGeometry relative="1" as="geometry" />
        </mxCell>
        <mxCell id="fiOfgjRnVxK1CXLO4UrZ-79" style="edgeStyle=orthogonalEdgeStyle;rounded=0;orthogonalLoop=1;jettySize=auto;html=1;endArrow=none;endFill=0;" parent="1" source="fiOfgjRnVxK1CXLO4UrZ-45" target="GkTLFh9MGfN7TxAeOnmk-2" edge="1">
          <mxGeometry relative="1" as="geometry" />
        </mxCell>
        <mxCell id="fiOfgjRnVxK1CXLO4UrZ-45" value="id_mps" style="ellipse;whiteSpace=wrap;html=1;align=center;fontStyle=4;" parent="1" vertex="1">
          <mxGeometry x="450" y="1380" width="100" height="40" as="geometry" />
        </mxCell>
        <mxCell id="fiOfgjRnVxK1CXLO4UrZ-80" style="edgeStyle=orthogonalEdgeStyle;rounded=0;orthogonalLoop=1;jettySize=auto;html=1;entryX=0.75;entryY=0;entryDx=0;entryDy=0;endArrow=none;endFill=0;" parent="1" source="fiOfgjRnVxK1CXLO4UrZ-46" target="GkTLFh9MGfN7TxAeOnmk-2" edge="1">
          <mxGeometry relative="1" as="geometry" />
        </mxCell>
        <mxCell id="fiOfgjRnVxK1CXLO4UrZ-46" value="nombre_mps" style="ellipse;whiteSpace=wrap;html=1;align=center;" parent="1" vertex="1">
          <mxGeometry x="590" y="1350" width="100" height="40" as="geometry" />
        </mxCell>
        <mxCell id="fiOfgjRnVxK1CXLO4UrZ-81" style="edgeStyle=orthogonalEdgeStyle;rounded=0;orthogonalLoop=1;jettySize=auto;html=1;endArrow=none;endFill=0;" parent="1" source="fiOfgjRnVxK1CXLO4UrZ-47" edge="1">
          <mxGeometry relative="1" as="geometry">
            <mxPoint x="650" y="1460" as="targetPoint" />
          </mxGeometry>
        </mxCell>
        <mxCell id="fiOfgjRnVxK1CXLO4UrZ-47" value="cantidad_mps" style="ellipse;whiteSpace=wrap;html=1;align=center;" parent="1" vertex="1">
          <mxGeometry x="700" y="1380" width="100" height="40" as="geometry" />
        </mxCell>
        <mxCell id="fiOfgjRnVxK1CXLO4UrZ-70" style="edgeStyle=orthogonalEdgeStyle;rounded=0;orthogonalLoop=1;jettySize=auto;html=1;endArrow=none;endFill=0;" parent="1" source="fiOfgjRnVxK1CXLO4UrZ-55" target="GkTLFh9MGfN7TxAeOnmk-23" edge="1">
          <mxGeometry relative="1" as="geometry" />
        </mxCell>
        <mxCell id="fiOfgjRnVxK1CXLO4UrZ-55" value="id_prov" style="ellipse;whiteSpace=wrap;html=1;align=center;fontStyle=4;" parent="1" vertex="1">
          <mxGeometry x="730" y="1840" width="100" height="40" as="geometry" />
        </mxCell>
        <mxCell id="fiOfgjRnVxK1CXLO4UrZ-69" style="edgeStyle=orthogonalEdgeStyle;rounded=0;orthogonalLoop=1;jettySize=auto;html=1;entryX=1;entryY=0.75;entryDx=0;entryDy=0;endArrow=none;endFill=0;" parent="1" source="fiOfgjRnVxK1CXLO4UrZ-56" target="GkTLFh9MGfN7TxAeOnmk-23" edge="1">
          <mxGeometry relative="1" as="geometry" />
        </mxCell>
        <mxCell id="fiOfgjRnVxK1CXLO4UrZ-56" value="nombre_prod" style="ellipse;whiteSpace=wrap;html=1;align=center;" parent="1" vertex="1">
          <mxGeometry x="720" y="1890" width="100" height="40" as="geometry" />
        </mxCell>
        <mxCell id="fiOfgjRnVxK1CXLO4UrZ-68" style="edgeStyle=orthogonalEdgeStyle;rounded=0;orthogonalLoop=1;jettySize=auto;html=1;entryX=1;entryY=0.25;entryDx=0;entryDy=0;endArrow=none;endFill=0;" parent="1" source="fiOfgjRnVxK1CXLO4UrZ-57" target="2BBWS6zxAbQjIf1ggg0--36" edge="1">
          <mxGeometry relative="1" as="geometry" />
        </mxCell>
        <mxCell id="fiOfgjRnVxK1CXLO4UrZ-57" value="direccion_prod" style="ellipse;whiteSpace=wrap;html=1;align=center;" parent="1" vertex="1">
          <mxGeometry x="700" y="1940" width="100" height="40" as="geometry" />
        </mxCell>
        <mxCell id="fiOfgjRnVxK1CXLO4UrZ-58" value="codigo_postal_prod" style="ellipse;whiteSpace=wrap;html=1;align=center;" parent="1" vertex="1">
          <mxGeometry x="580" y="1980" width="120" height="40" as="geometry" />
        </mxCell>
        <mxCell id="fiOfgjRnVxK1CXLO4UrZ-66" style="edgeStyle=orthogonalEdgeStyle;rounded=0;orthogonalLoop=1;jettySize=auto;html=1;endArrow=none;endFill=0;" parent="1" source="fiOfgjRnVxK1CXLO4UrZ-59" target="GkTLFh9MGfN7TxAeOnmk-23" edge="1">
          <mxGeometry relative="1" as="geometry" />
        </mxCell>
        <mxCell id="fiOfgjRnVxK1CXLO4UrZ-59" value="poblacion_prod" style="ellipse;whiteSpace=wrap;html=1;align=center;" parent="1" vertex="1">
          <mxGeometry x="470" y="1990" width="100" height="40" as="geometry" />
        </mxCell>
        <mxCell id="fiOfgjRnVxK1CXLO4UrZ-65" style="edgeStyle=orthogonalEdgeStyle;rounded=0;orthogonalLoop=1;jettySize=auto;html=1;entryX=0.14;entryY=1.025;entryDx=0;entryDy=0;entryPerimeter=0;endArrow=none;endFill=0;" parent="1" source="fiOfgjRnVxK1CXLO4UrZ-60" target="GkTLFh9MGfN7TxAeOnmk-23" edge="1">
          <mxGeometry relative="1" as="geometry" />
        </mxCell>
        <mxCell id="fiOfgjRnVxK1CXLO4UrZ-60" value="provincia_prod" style="ellipse;whiteSpace=wrap;html=1;align=center;" parent="1" vertex="1">
          <mxGeometry x="390" y="1930" width="100" height="40" as="geometry" />
        </mxCell>
        <mxCell id="fiOfgjRnVxK1CXLO4UrZ-64" style="edgeStyle=orthogonalEdgeStyle;rounded=0;orthogonalLoop=1;jettySize=auto;html=1;entryX=0;entryY=0.5;entryDx=0;entryDy=0;endArrow=none;endFill=0;" parent="1" source="fiOfgjRnVxK1CXLO4UrZ-61" target="GkTLFh9MGfN7TxAeOnmk-23" edge="1">
          <mxGeometry relative="1" as="geometry" />
        </mxCell>
        <mxCell id="fiOfgjRnVxK1CXLO4UrZ-61" value="telefono_prod" style="ellipse;whiteSpace=wrap;html=1;align=center;" parent="1" vertex="1">
          <mxGeometry x="400" y="1880" width="100" height="40" as="geometry" />
        </mxCell>
        <mxCell id="fiOfgjRnVxK1CXLO4UrZ-63" style="edgeStyle=orthogonalEdgeStyle;rounded=0;orthogonalLoop=1;jettySize=auto;html=1;entryX=0.25;entryY=0;entryDx=0;entryDy=0;endArrow=none;endFill=0;" parent="1" source="fiOfgjRnVxK1CXLO4UrZ-62" target="GkTLFh9MGfN7TxAeOnmk-23" edge="1">
          <mxGeometry relative="1" as="geometry" />
        </mxCell>
        <mxCell id="fiOfgjRnVxK1CXLO4UrZ-62" value="email_prod" style="ellipse;whiteSpace=wrap;html=1;align=center;" parent="1" vertex="1">
          <mxGeometry x="400" y="1820" width="100" height="40" as="geometry" />
        </mxCell>
        <mxCell id="fiOfgjRnVxK1CXLO4UrZ-67" style="edgeStyle=orthogonalEdgeStyle;rounded=0;orthogonalLoop=1;jettySize=auto;html=1;entryX=0.69;entryY=0.975;entryDx=0;entryDy=0;entryPerimeter=0;endArrow=none;endFill=0;" parent="1" source="fiOfgjRnVxK1CXLO4UrZ-58" target="GkTLFh9MGfN7TxAeOnmk-23" edge="1">
          <mxGeometry relative="1" as="geometry" />
        </mxCell>
        <mxCell id="fiOfgjRnVxK1CXLO4UrZ-89" style="edgeStyle=orthogonalEdgeStyle;rounded=0;orthogonalLoop=1;jettySize=auto;html=1;entryX=0.38;entryY=0.05;entryDx=0;entryDy=0;entryPerimeter=0;endArrow=none;endFill=0;" parent="1" source="fiOfgjRnVxK1CXLO4UrZ-26" target="fiOfgjRnVxK1CXLO4UrZ-19" edge="1">
          <mxGeometry relative="1" as="geometry" />
        </mxCell>
        <mxCell id="fiOfgjRnVxK1CXLO4UrZ-91" style="edgeStyle=orthogonalEdgeStyle;rounded=0;orthogonalLoop=1;jettySize=auto;html=1;entryX=0.11;entryY=1.1;entryDx=0;entryDy=0;entryPerimeter=0;endArrow=none;endFill=0;" parent="1" source="fiOfgjRnVxK1CXLO4UrZ-11" target="GkTLFh9MGfN7TxAeOnmk-48" edge="1">
          <mxGeometry relative="1" as="geometry" />
        </mxCell>
        <mxCell id="fiOfgjRnVxK1CXLO4UrZ-94" style="edgeStyle=orthogonalEdgeStyle;rounded=0;orthogonalLoop=1;jettySize=auto;html=1;endArrow=none;endFill=0;" parent="1" source="fiOfgjRnVxK1CXLO4UrZ-6" edge="1">
          <mxGeometry relative="1" as="geometry">
            <mxPoint x="70" y="820" as="targetPoint" />
          </mxGeometry>
        </mxCell>
        <mxCell id="VlfWvaHpxvSy55d5suyJ-2" value="" style="group" parent="1" vertex="1" connectable="0">
          <mxGeometry x="840" y="1660" width="120" height="80" as="geometry" />
        </mxCell>
        <mxCell id="VlfWvaHpxvSy55d5suyJ-4" value="" style="triangle;whiteSpace=wrap;html=1;rotation=-180;" parent="VlfWvaHpxvSy55d5suyJ-2" vertex="1">
          <mxGeometry width="60" height="80" as="geometry" />
        </mxCell>
        <mxCell id="6hhmFjWz-99Jrrq4Zya4-4" value="E" style="text;html=1;align=center;verticalAlign=middle;whiteSpace=wrap;rounded=0;" vertex="1" parent="1">
          <mxGeometry x="140" y="760" width="60" height="30" as="geometry" />
        </mxCell>
        <mxCell id="6hhmFjWz-99Jrrq4Zya4-5" value="esta´" style="text;html=1;align=center;verticalAlign=middle;whiteSpace=wrap;rounded=0;" vertex="1" parent="1">
          <mxGeometry x="320" y="840" width="60" height="30" as="geometry" />
        </mxCell>
        <mxCell id="6hhmFjWz-99Jrrq4Zya4-6" value="se realiza" style="text;html=1;align=center;verticalAlign=middle;whiteSpace=wrap;rounded=0;" vertex="1" parent="1">
          <mxGeometry x="130" y="930" width="60" height="30" as="geometry" />
        </mxCell>
        <mxCell id="6hhmFjWz-99Jrrq4Zya4-7" value="pertenece a" style="text;html=1;align=center;verticalAlign=middle;whiteSpace=wrap;rounded=0;" vertex="1" parent="1">
          <mxGeometry x="300" y="1360" width="60" height="30" as="geometry" />
        </mxCell>
        <mxCell id="6hhmFjWz-99Jrrq4Zya4-9" value="está formado por" style="text;html=1;align=center;verticalAlign=middle;whiteSpace=wrap;rounded=0;" vertex="1" parent="1">
          <mxGeometry x="315" y="1530" width="60" height="30" as="geometry" />
        </mxCell>
        <mxCell id="6hhmFjWz-99Jrrq4Zya4-10" value="es suministrada por" style="text;html=1;align=center;verticalAlign=middle;whiteSpace=wrap;rounded=0;" vertex="1" parent="1">
          <mxGeometry x="490" y="1640" width="60" height="30" as="geometry" />
        </mxCell>
        <mxCell id="6hhmFjWz-99Jrrq4Zya4-12" value="tiene" style="text;html=1;align=center;verticalAlign=middle;whiteSpace=wrap;rounded=0;" vertex="1" parent="1">
          <mxGeometry x="120" y="1275" width="60" height="30" as="geometry" />
        </mxCell>
        <mxCell id="6hhmFjWz-99Jrrq4Zya4-13" value="tiene" style="text;html=1;align=center;verticalAlign=middle;whiteSpace=wrap;rounded=0;" vertex="1" parent="1">
          <mxGeometry x="870" y="1750" width="60" height="30" as="geometry" />
        </mxCell>
        <mxCell id="6hhmFjWz-99Jrrq4Zya4-14" value="es" style="text;html=1;align=center;verticalAlign=middle;whiteSpace=wrap;rounded=0;" vertex="1" parent="1">
          <mxGeometry x="130" y="1655" width="60" height="30" as="geometry" />
        </mxCell>
        <mxCell id="GkTLFh9MGfN7TxAeOnmk-41" value="Ubicaciones" style="rounded=1;arcSize=10;whiteSpace=wrap;html=1;align=center;" parent="1" vertex="1">
          <mxGeometry x="1080" y="1330" width="100" height="40" as="geometry" />
        </mxCell>
        <mxCell id="2BBWS6zxAbQjIf1ggg0--26" value="" style="group" parent="1" vertex="1" connectable="0">
          <mxGeometry x="1325" y="1660" width="120" height="80" as="geometry" />
        </mxCell>
        <mxCell id="2BBWS6zxAbQjIf1ggg0--27" value="" style="triangle;whiteSpace=wrap;html=1;fillColor=#647687;strokeColor=#314354;fontColor=#ffffff;" parent="2BBWS6zxAbQjIf1ggg0--26" vertex="1">
          <mxGeometry x="60" width="60" height="80" as="geometry" />
        </mxCell>
        <mxCell id="2BBWS6zxAbQjIf1ggg0--28" value="" style="triangle;whiteSpace=wrap;html=1;rotation=-180;" parent="2BBWS6zxAbQjIf1ggg0--26" vertex="1">
          <mxGeometry width="60" height="80" as="geometry" />
        </mxCell>
        <mxCell id="2BBWS6zxAbQjIf1ggg0--29" value="Entradas" style="rounded=1;arcSize=10;whiteSpace=wrap;html=1;align=center;" parent="1" vertex="1">
          <mxGeometry x="1565" y="1680" width="100" height="40" as="geometry" />
        </mxCell>
        <mxCell id="2BBWS6zxAbQjIf1ggg0--30" style="edgeStyle=orthogonalEdgeStyle;rounded=0;orthogonalLoop=1;jettySize=auto;html=1;entryX=0;entryY=0.5;entryDx=0;entryDy=0;endArrow=none;endFill=0;" parent="1" source="2BBWS6zxAbQjIf1ggg0--27" target="2BBWS6zxAbQjIf1ggg0--29" edge="1">
          <mxGeometry relative="1" as="geometry" />
        </mxCell>
        <mxCell id="2BBWS6zxAbQjIf1ggg0--31" value="" style="edgeStyle=orthogonalEdgeStyle;rounded=0;orthogonalLoop=1;jettySize=auto;html=1;endArrow=none;endFill=0;" parent="1" target="2BBWS6zxAbQjIf1ggg0--33" edge="1">
          <mxGeometry relative="1" as="geometry">
            <mxPoint x="1130" y="1680" as="sourcePoint" />
          </mxGeometry>
        </mxCell>
        <mxCell id="2BBWS6zxAbQjIf1ggg0--32" value="" style="group;rotation=90;" parent="1" vertex="1" connectable="0">
          <mxGeometry x="1070" y="1470" width="120" height="80" as="geometry" />
        </mxCell>
        <mxCell id="2BBWS6zxAbQjIf1ggg0--33" value="" style="triangle;whiteSpace=wrap;html=1;rotation=90;" parent="2BBWS6zxAbQjIf1ggg0--32" vertex="1">
          <mxGeometry x="30" y="30" width="60" height="80" as="geometry" />
        </mxCell>
        <mxCell id="2BBWS6zxAbQjIf1ggg0--34" value="" style="triangle;whiteSpace=wrap;html=1;rotation=-90;fillColor=#647687;fontColor=#ffffff;strokeColor=#314354;" parent="2BBWS6zxAbQjIf1ggg0--32" vertex="1">
          <mxGeometry x="30" y="-30" width="60" height="80" as="geometry" />
        </mxCell>
        <mxCell id="2BBWS6zxAbQjIf1ggg0--35" value="" style="edgeStyle=orthogonalEdgeStyle;rounded=0;orthogonalLoop=1;jettySize=auto;html=1;endArrow=none;endFill=0;" parent="1" target="2BBWS6zxAbQjIf1ggg0--34" edge="1">
          <mxGeometry relative="1" as="geometry">
            <mxPoint x="1130" y="1370" as="sourcePoint" />
          </mxGeometry>
        </mxCell>
        <mxCell id="fiOfgjRnVxK1CXLO4UrZ-77" style="edgeStyle=orthogonalEdgeStyle;rounded=0;orthogonalLoop=1;jettySize=auto;html=1;entryX=0.5;entryY=0;entryDx=0;entryDy=0;endArrow=none;endFill=0;" parent="1" source="fiOfgjRnVxK1CXLO4UrZ-7" target="GkTLFh9MGfN7TxAeOnmk-41" edge="1">
          <mxGeometry relative="1" as="geometry" />
        </mxCell>
        <mxCell id="fiOfgjRnVxK1CXLO4UrZ-7" value="id_ubicaciones" style="ellipse;whiteSpace=wrap;html=1;align=center;fontStyle=4;" parent="1" vertex="1">
          <mxGeometry x="1205" y="1290" width="100" height="40" as="geometry" />
        </mxCell>
        <mxCell id="fiOfgjRnVxK1CXLO4UrZ-8" value="nombre" style="ellipse;whiteSpace=wrap;html=1;align=center;" parent="1" vertex="1">
          <mxGeometry x="1210" y="1370" width="100" height="40" as="geometry" />
        </mxCell>
        <mxCell id="VlfWvaHpxvSy55d5suyJ-34" style="edgeStyle=orthogonalEdgeStyle;rounded=0;orthogonalLoop=1;jettySize=auto;html=1;endArrow=none;endFill=0;" parent="1" source="fiOfgjRnVxK1CXLO4UrZ-48" target="2BBWS6zxAbQjIf1ggg0--29" edge="1">
          <mxGeometry relative="1" as="geometry" />
        </mxCell>
        <mxCell id="fiOfgjRnVxK1CXLO4UrZ-48" value="id_entradas" style="ellipse;whiteSpace=wrap;html=1;align=center;fontStyle=4;" parent="1" vertex="1">
          <mxGeometry x="1720" y="1670" width="100" height="40" as="geometry" />
        </mxCell>
        <mxCell id="VlfWvaHpxvSy55d5suyJ-33" style="edgeStyle=orthogonalEdgeStyle;rounded=0;orthogonalLoop=1;jettySize=auto;html=1;entryX=1;entryY=0.75;entryDx=0;entryDy=0;endArrow=none;endFill=0;" parent="1" source="fiOfgjRnVxK1CXLO4UrZ-49" target="2BBWS6zxAbQjIf1ggg0--29" edge="1">
          <mxGeometry relative="1" as="geometry" />
        </mxCell>
        <mxCell id="fiOfgjRnVxK1CXLO4UrZ-49" value="fecha_entradas" style="ellipse;whiteSpace=wrap;html=1;align=center;fontStyle=0" parent="1" vertex="1">
          <mxGeometry x="1725" y="1720" width="100" height="40" as="geometry" />
        </mxCell>
        <mxCell id="fiOfgjRnVxK1CXLO4UrZ-52" value="fecha_cad_entradas" style="ellipse;whiteSpace=wrap;html=1;align=center;" parent="1" vertex="1">
          <mxGeometry x="1675" y="1770" width="130" height="40" as="geometry" />
        </mxCell>
        <mxCell id="6hhmFjWz-99Jrrq4Zya4-17" value="" style="edgeStyle=orthogonalEdgeStyle;rounded=0;orthogonalLoop=1;jettySize=auto;html=1;endArrow=none;endFill=0;" edge="1" parent="1" source="fiOfgjRnVxK1CXLO4UrZ-53" target="2BBWS6zxAbQjIf1ggg0--29">
          <mxGeometry relative="1" as="geometry" />
        </mxCell>
        <mxCell id="fiOfgjRnVxK1CXLO4UrZ-53" value="cantidad_entradas" style="ellipse;whiteSpace=wrap;html=1;align=center;" parent="1" vertex="1">
          <mxGeometry x="1565" y="1800" width="100" height="40" as="geometry" />
        </mxCell>
        <mxCell id="fiOfgjRnVxK1CXLO4UrZ-78" style="edgeStyle=orthogonalEdgeStyle;rounded=0;orthogonalLoop=1;jettySize=auto;html=1;entryX=0.9;entryY=1;entryDx=0;entryDy=0;entryPerimeter=0;endArrow=none;endFill=0;" parent="1" source="fiOfgjRnVxK1CXLO4UrZ-8" target="GkTLFh9MGfN7TxAeOnmk-41" edge="1">
          <mxGeometry relative="1" as="geometry" />
        </mxCell>
        <mxCell id="VlfWvaHpxvSy55d5suyJ-3" value="" style="triangle;whiteSpace=wrap;html=1;fillColor=#647687;strokeColor=#314354;fontColor=#ffffff;" parent="1" vertex="1">
          <mxGeometry x="900" y="1660" width="60" height="80" as="geometry" />
        </mxCell>
        <mxCell id="VlfWvaHpxvSy55d5suyJ-5" value="lotes" style="rounded=1;arcSize=10;whiteSpace=wrap;html=1;align=center;" parent="1" vertex="1">
          <mxGeometry x="1080" y="1680" width="100" height="40" as="geometry" />
        </mxCell>
        <mxCell id="VlfWvaHpxvSy55d5suyJ-6" style="edgeStyle=orthogonalEdgeStyle;rounded=0;orthogonalLoop=1;jettySize=auto;html=1;entryX=0;entryY=0.5;entryDx=0;entryDy=0;endArrow=none;endFill=0;" parent="1" source="VlfWvaHpxvSy55d5suyJ-3" target="VlfWvaHpxvSy55d5suyJ-5" edge="1">
          <mxGeometry relative="1" as="geometry" />
        </mxCell>
        <mxCell id="VlfWvaHpxvSy55d5suyJ-8" value="id_lotes" style="ellipse;whiteSpace=wrap;html=1;align=center;fontStyle=4;" parent="1" vertex="1">
          <mxGeometry x="1180" y="1780" width="100" height="40" as="geometry" />
        </mxCell>
        <mxCell id="VlfWvaHpxvSy55d5suyJ-9" value="nombre_lotes" style="ellipse;whiteSpace=wrap;html=1;align=center;" parent="1" vertex="1">
          <mxGeometry x="1000" y="1745" width="100" height="40" as="geometry" />
        </mxCell>
        <mxCell id="6hhmFjWz-99Jrrq4Zya4-23" style="edgeStyle=orthogonalEdgeStyle;rounded=0;orthogonalLoop=1;jettySize=auto;html=1;endArrow=none;endFill=0;" edge="1" parent="1" source="VlfWvaHpxvSy55d5suyJ-25" target="VlfWvaHpxvSy55d5suyJ-5">
          <mxGeometry relative="1" as="geometry" />
        </mxCell>
        <mxCell id="VlfWvaHpxvSy55d5suyJ-25" value="cantidad_lotes" style="ellipse;whiteSpace=wrap;html=1;align=center;" parent="1" vertex="1">
          <mxGeometry x="1070" y="1780" width="100" height="40" as="geometry" />
        </mxCell>
        <mxCell id="6hhmFjWz-99Jrrq4Zya4-11" value="tiene" style="text;html=1;align=center;verticalAlign=middle;whiteSpace=wrap;rounded=0;" vertex="1" parent="1">
          <mxGeometry x="1355" y="1750" width="60" height="30" as="geometry" />
        </mxCell>
        <mxCell id="6hhmFjWz-99Jrrq4Zya4-15" value="se encuentra" style="text;html=1;align=center;verticalAlign=middle;whiteSpace=wrap;rounded=0;" vertex="1" parent="1">
          <mxGeometry x="1170" y="1490" width="60" height="30" as="geometry" />
        </mxCell>
        <mxCell id="6hhmFjWz-99Jrrq4Zya4-19" style="edgeStyle=orthogonalEdgeStyle;rounded=0;orthogonalLoop=1;jettySize=auto;html=1;entryX=0.9;entryY=1;entryDx=0;entryDy=0;entryPerimeter=0;endArrow=none;endFill=0;" edge="1" parent="1" source="fiOfgjRnVxK1CXLO4UrZ-52" target="2BBWS6zxAbQjIf1ggg0--29">
          <mxGeometry relative="1" as="geometry" />
        </mxCell>
        <mxCell id="6hhmFjWz-99Jrrq4Zya4-20" style="edgeStyle=orthogonalEdgeStyle;rounded=0;orthogonalLoop=1;jettySize=auto;html=1;entryX=0.4;entryY=1;entryDx=0;entryDy=0;entryPerimeter=0;endArrow=none;endFill=0;" edge="1" parent="1" source="VlfWvaHpxvSy55d5suyJ-9" target="VlfWvaHpxvSy55d5suyJ-5">
          <mxGeometry relative="1" as="geometry" />
        </mxCell>
        <mxCell id="6hhmFjWz-99Jrrq4Zya4-21" style="edgeStyle=orthogonalEdgeStyle;rounded=0;orthogonalLoop=1;jettySize=auto;html=1;endArrow=none;endFill=0;" edge="1" parent="1" source="2BBWS6zxAbQjIf1ggg0--28" target="VlfWvaHpxvSy55d5suyJ-5">
          <mxGeometry relative="1" as="geometry" />
        </mxCell>
        <mxCell id="6hhmFjWz-99Jrrq4Zya4-24" style="edgeStyle=orthogonalEdgeStyle;rounded=0;orthogonalLoop=1;jettySize=auto;html=1;entryX=0.953;entryY=1.067;entryDx=0;entryDy=0;entryPerimeter=0;endArrow=none;endFill=0;" edge="1" parent="1" source="VlfWvaHpxvSy55d5suyJ-8" target="VlfWvaHpxvSy55d5suyJ-5">
          <mxGeometry relative="1" as="geometry" />
        </mxCell>
        <mxCell id="6hhmFjWz-99Jrrq4Zya4-27" style="edgeStyle=orthogonalEdgeStyle;rounded=0;orthogonalLoop=1;jettySize=auto;html=1;entryX=0.595;entryY=0.007;entryDx=0;entryDy=0;entryPerimeter=0;endArrow=none;endFill=0;" edge="1" parent="1" source="VlfWvaHpxvSy55d5suyJ-4" target="2BBWS6zxAbQjIf1ggg0--36">
          <mxGeometry relative="1" as="geometry" />
        </mxCell>
      </root>
    </mxGraphModel>
  </diagram>
</mxfile>
